<svg width="12" height="12" viewBox="0 0 12 12" fill="none" xmlns="http://www.w3.org/2000/svg">
<path d="M5.999 4.58507L1.70664 0.292537C1.31661 -0.0975122 0.682557 -0.0975122 0.292524 0.292537C-0.0975081 0.682585 -0.0975081 1.31666 0.292524 1.70671L4.58488 5.99925L0.292524 10.2918C-0.0975081 10.6818 -0.0975081 11.3159 0.292524 11.706C0.486541 11.902 0.742561 12 0.998583 12C1.2546 12 1.51063 11.902 1.70664 11.708L5.999 7.41343L10.2914 11.706C10.4874 11.902 10.7434 12 10.9994 12C11.2554 12 11.5115 11.902 11.7075 11.708C12.0975 11.3179 12.0975 10.6838 11.7075 10.2938L7.41312 5.99925L11.7055 1.70671C12.0955 1.31666 12.0955 0.682585 11.7055 0.292537C11.3154 -0.0975122 10.6814 -0.0975122 10.2914 0.292537L5.999 4.58507Z" fill="#C3C8CC"/>
</svg>
