<svg width="151" height="149" viewBox="0 0 151 149" fill="none" xmlns="http://www.w3.org/2000/svg">
<g clip-path="url(#clip0)">
<path opacity="0.15" d="M135.022 81.1466L124.689 103.572C124.308 104.398 124.669 105.376 125.495 105.756L137.455 111.267C138.281 111.648 139.259 111.287 139.639 110.461L149.972 88.0353C150.353 87.2097 149.992 86.2319 149.166 85.8515L137.206 80.3405C136.38 79.9601 135.402 80.321 135.022 81.1466Z" fill="#45413C"/>
<path opacity="0.15" d="M114.361 58.5092L111.852 65.4932C111.558 66.297 111.426 67.1511 111.463 68.0062C111.5 68.8614 111.706 69.7007 112.069 70.4759C112.432 71.2512 112.944 71.9471 113.577 72.5236C114.209 73.1001 114.95 73.5459 115.755 73.8353C116.561 74.1247 117.416 74.2519 118.271 74.2098C119.125 74.1677 119.964 73.957 120.737 73.5898C121.51 73.2226 122.203 72.7062 122.776 72.0702C123.349 71.4343 123.79 70.6914 124.075 69.8842L126.583 62.8992C126.871 62.0967 126.999 61.2453 126.958 60.3935C126.917 59.5418 126.709 58.7064 126.345 57.9352C125.982 57.1639 125.47 56.4718 124.838 55.8984C124.207 55.3249 123.47 54.8814 122.667 54.5932C121.864 54.3049 121.013 54.1776 120.161 54.2184C119.31 54.2592 118.474 54.4673 117.703 54.831C116.932 55.1946 116.24 55.7066 115.666 56.3377C115.093 56.9688 114.649 57.7067 114.361 58.5092Z" fill="#45413C"/>
<path opacity="0.15" d="M89.838 75.954H50.163C49.4834 75.9541 48.8104 75.8204 48.1825 75.5604C47.5545 75.3003 46.984 74.9192 46.5034 74.4386C46.0229 73.958 45.6417 73.3875 45.3817 72.7596C45.1216 72.1316 44.9879 71.4586 44.988 70.779V58.7H95.013V70.775C95.0134 71.4549 94.8798 72.1282 94.62 72.7565C94.3601 73.3847 93.979 73.9556 93.4984 74.4366C93.0178 74.9175 92.4472 75.2991 91.8192 75.5594C91.1911 75.8198 90.5179 75.9539 89.838 75.954Z" fill="#45413C"/>
<path opacity="0.15" d="M115.712 34.554C115.712 33.078 103.436 31.82 86.176 31.327L86.149 31.104H53.85L53.824 31.327C36.564 31.82 24.287 33.078 24.287 34.554C24.287 36.008 36.207 37.254 53.067 37.754L52.797 40.054C52.677 41.0724 52.774 42.1047 53.0817 43.083C53.3894 44.0612 53.9008 44.9632 54.5822 45.7295C55.2636 46.4958 56.0996 47.1092 57.0351 47.5291C57.9706 47.9491 58.9845 48.1661 60.01 48.166H79.99C81.0146 48.1655 82.0275 47.9481 82.9621 47.5283C83.8968 47.1084 84.732 46.4956 85.413 45.73C86.0939 44.9644 86.6052 44.0635 86.9132 43.0862C87.2212 42.109 87.3189 41.0777 87.2 40.06L86.929 37.76C103.793 37.25 115.712 36.008 115.712 34.554Z" fill="#45413C"/>
<path d="M90.7 71.641H49.3C48.385 71.641 47.5075 71.2775 46.8605 70.6305C46.2135 69.9835 45.85 69.106 45.85 68.191V52.666C45.85 52.2085 46.0317 51.7698 46.3552 51.4463C46.6787 51.1228 47.1175 50.941 47.575 50.941H92.425C92.8825 50.941 93.3213 51.1228 93.6448 51.4463C93.9683 51.7698 94.15 52.2085 94.15 52.666V68.191C94.15 69.106 93.7865 69.9835 93.1395 70.6305C92.4925 71.2775 91.615 71.641 90.7 71.641Z" fill="#E0E0E0"/>
<path d="M92.425 50.941H47.575C47.1175 50.941 46.6787 51.1228 46.3552 51.4463C46.0317 51.7698 45.85 52.2085 45.85 52.666V57.841C45.85 56.926 46.2135 56.0485 46.8605 55.4015C47.5075 54.7545 48.385 54.391 49.3 54.391H90.7C91.615 54.391 92.4925 54.7545 93.1395 55.4015C93.7865 56.0485 94.15 56.926 94.15 57.841V52.666C94.15 52.2085 93.9683 51.7698 93.6448 51.4463C93.3213 51.1228 92.8825 50.941 92.425 50.941Z" fill="#F0F0F0"/>
<path d="M90.7 71.641H49.3C48.385 71.641 47.5075 71.2775 46.8605 70.6305C46.2135 69.9835 45.85 69.106 45.85 68.191V52.666C45.85 52.2085 46.0317 51.7698 46.3552 51.4463C46.6787 51.1228 47.1175 50.941 47.575 50.941H92.425C92.8825 50.941 93.3213 51.1228 93.6448 51.4463C93.9683 51.7698 94.15 52.2085 94.15 52.666V68.191C94.15 69.106 93.7865 69.9835 93.1395 70.6305C92.4925 71.2775 91.615 71.641 90.7 71.641V71.641Z" stroke="#45413C" stroke-linecap="round" stroke-linejoin="round"/>
<path d="M51.025 66.466H54.475" stroke="#45413C" stroke-linecap="round" stroke-linejoin="round"/>
<path d="M51.025 61.291H54.475" stroke="#45413C" stroke-linecap="round" stroke-linejoin="round"/>
<path d="M51.025 56.116H54.475" stroke="#45413C" stroke-linecap="round" stroke-linejoin="round"/>
<path d="M57.925 61.291H61.375" stroke="#45413C" stroke-linecap="round" stroke-linejoin="round"/>
<path d="M57.925 56.116H61.375" stroke="#45413C" stroke-linecap="round" stroke-linejoin="round"/>
<path d="M64.825 61.291H68.275" stroke="#45413C" stroke-linecap="round" stroke-linejoin="round"/>
<path d="M64.825 56.116H68.275" stroke="#45413C" stroke-linecap="round" stroke-linejoin="round"/>
<path d="M71.725 61.291H75.175" stroke="#45413C" stroke-linecap="round" stroke-linejoin="round"/>
<path d="M71.725 56.116H75.175" stroke="#45413C" stroke-linecap="round" stroke-linejoin="round"/>
<path d="M78.625 61.291H82.075" stroke="#45413C" stroke-linecap="round" stroke-linejoin="round"/>
<path d="M78.625 56.116H82.075" stroke="#45413C" stroke-linecap="round" stroke-linejoin="round"/>
<path d="M85.525 66.466H88.975" stroke="#45413C" stroke-linecap="round" stroke-linejoin="round"/>
<path d="M85.525 61.291H88.975" stroke="#45413C" stroke-linecap="round" stroke-linejoin="round"/>
<path d="M85.525 56.116H88.975" stroke="#45413C" stroke-linecap="round" stroke-linejoin="round"/>
<path d="M57.925 66.466H82.075" stroke="#45413C" stroke-linecap="round" stroke-linejoin="round"/>
<path d="M133.761 0.916016H6.239C5.21311 0.916168 4.20374 1.17438 3.3038 1.66687C2.40386 2.15937 1.64226 2.87034 1.08911 3.73432C0.53596 4.59831 0.209029 5.58756 0.13841 6.61101C0.0677916 7.63447 0.255754 8.65924 0.684997 9.59101H139.315C139.744 8.65924 139.932 7.63447 139.862 6.61101C139.791 5.58756 139.464 4.59831 138.911 3.73432C138.358 2.87034 137.596 2.15937 136.696 1.66687C135.796 1.17438 134.787 0.916168 133.761 0.916016Z" fill="#E0E0E0"/>
<path d="M133.761 0.916016H6.239C5.21311 0.916168 4.20374 1.17438 3.3038 1.66687C2.40386 2.15937 1.64226 2.87034 1.08911 3.73432C0.53596 4.59831 0.209029 5.58756 0.13841 6.61101C0.0677916 7.63447 0.255754 8.65924 0.684997 9.59101H139.315C139.744 8.65924 139.932 7.63447 139.862 6.61101C139.791 5.58756 139.464 4.59831 138.911 3.73432C138.358 2.87034 137.596 2.15937 136.696 1.66687C135.796 1.17438 134.787 0.916168 133.761 0.916016V0.916016Z" stroke="#45413C" stroke-linecap="round" stroke-linejoin="round"/>
<path d="M77.664 14.716H62.336C60.6455 14.716 59.0139 15.3365 57.7506 16.4598C56.4874 17.5831 55.6805 19.1311 55.483 20.81L53.656 36.335C53.5422 37.3025 53.6346 38.2831 53.927 39.2124C54.2195 40.1416 54.7053 40.9984 55.3527 41.7263C56.0001 42.4543 56.7943 43.0369 57.683 43.4359C58.5717 43.8348 59.5348 44.0411 60.509 44.041H79.491C80.4651 44.0409 81.4281 43.8346 82.3167 43.4355C83.2053 43.0365 83.9994 42.4539 84.6466 41.726C85.2939 40.998 85.7797 40.1413 86.0721 39.2121C86.3645 38.283 86.4568 37.3024 86.343 36.335L84.517 20.81C84.3195 19.1311 83.5126 17.5831 82.2494 16.4598C80.9861 15.3365 79.3545 14.716 77.664 14.716Z" fill="#E0E0E0"/>
<path d="M86.134 34.554L84.517 20.81C84.3195 19.1311 83.5126 17.5831 82.2494 16.4598C80.9861 15.3365 79.3545 14.716 77.664 14.716H62.336C60.6455 14.716 59.0139 15.3365 57.7506 16.4598C56.4874 17.5831 55.6805 19.1311 55.483 20.81L53.866 34.554H86.134Z" fill="#BDBEC0"/>
<path d="M77.664 14.716H62.336C60.6455 14.716 59.0139 15.3365 57.7506 16.4598C56.4874 17.5831 55.6805 19.1311 55.483 20.81L53.656 36.335C53.5422 37.3025 53.6346 38.2831 53.927 39.2124C54.2195 40.1416 54.7053 40.9984 55.3527 41.7263C56.0001 42.4543 56.7943 43.0369 57.683 43.4359C58.5717 43.8348 59.5348 44.0411 60.509 44.041H79.491C80.4651 44.0409 81.4281 43.8346 82.3167 43.4355C83.2053 43.0365 83.9994 42.4539 84.6466 41.726C85.2939 40.998 85.7797 40.1413 86.0721 39.2121C86.3645 38.283 86.4568 37.3024 86.343 36.335L84.517 20.81C84.3195 19.1311 83.5126 17.5831 82.2494 16.4598C80.9861 15.3365 79.3545 14.716 77.664 14.716Z" stroke="#45413C" stroke-linecap="round" stroke-linejoin="round"/>
<path d="M136.357 4.36602H3.643C3.03251 4.36608 2.43296 4.52813 1.90557 4.83564C1.37819 5.14315 0.941839 5.58509 0.641078 6.11636C0.340317 6.64762 0.185912 7.24918 0.193627 7.85962C0.201343 8.47006 0.370902 9.06752 0.684995 9.59101L11.567 27.729C12.0269 28.4953 12.6774 29.1294 13.4551 29.5696C14.2328 30.0098 15.1113 30.2411 16.005 30.241H124C124.894 30.2412 125.772 30.0099 126.549 29.5696C127.327 29.1294 127.977 28.4953 128.437 27.729L139.32 9.59101C139.634 9.06716 139.804 8.46924 139.811 7.85837C139.819 7.2475 139.664 6.64559 139.363 6.11418C139.061 5.58276 138.624 5.1409 138.096 4.83375C137.568 4.5266 136.968 4.36519 136.357 4.36602Z" fill="#6EB2F2"/>
<path d="M16.005 30.241H44.125L70 4.36601H3.643C3.03251 4.36608 2.43296 4.52813 1.90557 4.83564C1.37819 5.14314 0.941839 5.58509 0.641078 6.11635C0.340317 6.64762 0.185912 7.24917 0.193627 7.85962C0.201343 8.47006 0.370902 9.06752 0.684995 9.59101L11.567 27.729C12.0269 28.4953 12.6774 29.1294 13.4551 29.5696C14.2328 30.0098 15.1113 30.2411 16.005 30.241Z" fill="#9ACEFF"/>
<path d="M136.357 4.36602H3.643C3.03251 4.36608 2.43296 4.52813 1.90557 4.83564C1.37819 5.14315 0.941839 5.58509 0.641078 6.11636C0.340317 6.64762 0.185912 7.24918 0.193627 7.85962C0.201343 8.47006 0.370902 9.06752 0.684995 9.59101L11.567 27.729C12.0269 28.4953 12.6774 29.1294 13.4551 29.5696C14.2328 30.0098 15.1113 30.2411 16.005 30.241H124C124.894 30.2412 125.772 30.0099 126.549 29.5696C127.327 29.1294 127.977 28.4953 128.437 27.729L139.32 9.59101C139.634 9.06716 139.804 8.46924 139.811 7.85837C139.819 7.2475 139.664 6.64559 139.363 6.11418C139.061 5.58276 138.624 5.1409 138.096 4.83375C137.568 4.5266 136.968 4.36519 136.357 4.36602V4.36602Z" stroke="#45413C" stroke-linecap="round" stroke-linejoin="round"/>
<path d="M9.97 25.066L11.57 27.729C12.0299 28.4953 12.6804 29.1294 13.4581 29.5696C14.2358 30.0098 15.1143 30.2411 16.008 30.241H124C124.894 30.2411 125.772 30.0098 126.55 29.5696C127.328 29.1294 127.978 28.4953 128.438 27.729L130.038 25.066H9.97Z" fill="#E0E0E0"/>
<path d="M9.97 25.066L11.57 27.729C12.0299 28.4953 12.6804 29.1294 13.4581 29.5696C14.2358 30.0098 15.1143 30.2411 16.008 30.241H124C124.894 30.2411 125.772 30.0098 126.55 29.5696C127.328 29.1294 127.978 28.4953 128.438 27.729L130.038 25.066H9.97Z" stroke="#45413C" stroke-linecap="round" stroke-linejoin="round"/>
<path d="M36.46 35.416H25.243C24.9505 35.416 24.6628 35.3417 24.4068 35.2C24.1509 35.0583 23.9352 34.8539 23.78 34.606L21.624 31.156C21.4609 30.8948 21.3707 30.5947 21.3627 30.2869C21.3547 29.9791 21.4292 29.6747 21.5784 29.4054C21.7277 29.1361 21.9463 28.9116 22.2115 28.7552C22.4768 28.5988 22.7791 28.5162 23.087 28.516H35.167C35.5182 28.5161 35.861 28.6234 36.1496 28.8235C36.4382 29.0237 36.6588 29.3071 36.782 29.636L38.076 33.086C38.1737 33.347 38.2068 33.6278 38.1723 33.9044C38.1378 34.181 38.0369 34.4451 37.878 34.6741C37.7192 34.9031 37.5072 35.0903 37.2603 35.2195C37.0133 35.3487 36.7387 35.4161 36.46 35.416Z" fill="#38C491" stroke="#45413C" stroke-linecap="round" stroke-linejoin="round"/>
<path d="M111.35 7.81601H28.65C28.3634 7.81612 28.0814 7.88759 27.8293 8.02397C27.5772 8.16035 27.3631 8.35735 27.2062 8.59719C27.0493 8.83702 26.9546 9.11215 26.9307 9.39774C26.9067 9.68333 26.9543 9.97039 27.069 10.233L31.6 20.583C31.7346 20.8903 31.9558 21.1516 32.2366 21.3351C32.5174 21.5186 32.8456 21.6162 33.181 21.616H106.825C107.16 21.6161 107.488 21.5185 107.769 21.335C108.05 21.1515 108.271 20.8902 108.405 20.583L112.933 10.233C113.048 9.97025 113.096 9.68294 113.072 9.39709C113.048 9.11123 112.953 8.83586 112.796 8.59589C112.639 8.35593 112.424 8.15894 112.172 8.02276C111.919 7.88659 111.637 7.81553 111.35 7.81601Z" fill="#E8F4FA"/>
<path d="M66.55 7.81601H28.65C28.3634 7.81612 28.0814 7.88758 27.8293 8.02396C27.5772 8.16034 27.3631 8.35734 27.2062 8.59718C27.0493 8.83702 26.9546 9.11215 26.9307 9.39774C26.9067 9.68333 26.9543 9.97039 27.069 10.233L31.6 20.583C31.7346 20.8903 31.9558 21.1516 32.2366 21.3351C32.5174 21.5186 32.8456 21.6162 33.181 21.616H52.75L66.55 7.81601Z" fill="white"/>
<path d="M111.35 7.81601H28.65C28.3634 7.81612 28.0814 7.88759 27.8293 8.02397C27.5772 8.16035 27.3631 8.35735 27.2062 8.59719C27.0493 8.83702 26.9546 9.11215 26.9307 9.39774C26.9067 9.68333 26.9543 9.97039 27.069 10.233L31.6 20.583C31.7346 20.8903 31.9558 21.1516 32.2366 21.3351C32.5174 21.5186 32.8456 21.6162 33.181 21.616H106.825C107.16 21.6161 107.488 21.5185 107.769 21.335C108.05 21.1515 108.271 20.8902 108.405 20.583L112.933 10.233C113.048 9.97025 113.096 9.68294 113.072 9.39709C113.048 9.11123 112.953 8.83586 112.796 8.59589C112.639 8.35593 112.424 8.15894 112.172 8.02276C111.919 7.88659 111.637 7.81553 111.35 7.81601Z" stroke="#45413C" stroke-linecap="round" stroke-linejoin="round"/>
<path d="M32.05 11.266H38.95" stroke="#45413C" stroke-linecap="round" stroke-linejoin="round"/>
<path d="M37.225 14.716H45.85" stroke="#45413C" stroke-linecap="round" stroke-linejoin="round"/>
<path d="M95.875 7.81601L93.287 21.616" stroke="#45413C" stroke-linecap="round" stroke-linejoin="round"/>
<path d="M44.125 18.166H52.75" stroke="#45413C" stroke-linecap="round" stroke-linejoin="round"/>
<path d="M42.4 11.266H44.125" stroke="#45413C" stroke-linecap="round" stroke-linejoin="round"/>
<path opacity="0.15" d="M19.74 81.991C26.4088 81.991 31.815 76.5849 31.815 69.916C31.815 63.2472 26.4088 57.841 19.74 57.841C13.0712 57.841 7.665 63.2472 7.665 69.916C7.665 76.5849 13.0712 81.991 19.74 81.991Z" fill="#45413C"/>
<path d="M10.592 77.549C10.3532 77.7958 10.0677 77.9926 9.75204 78.1279C9.43642 78.2632 9.09702 78.3344 8.75363 78.3372C8.41024 78.3401 8.06971 78.2745 7.7519 78.1445C7.43408 78.0144 7.14533 77.8223 6.90248 77.5796C6.65962 77.3368 6.46751 77.0481 6.33734 76.7303C6.20718 76.4125 6.14155 76.072 6.1443 75.7286C6.14705 75.3852 6.21811 75.0458 6.35335 74.7301C6.48858 74.4145 6.68528 74.1289 6.93199 73.89L11.202 69.62L14.861 73.28L10.592 77.549Z" fill="white" stroke="#45413C" stroke-linecap="round" stroke-linejoin="round"/>
<path d="M11.812 72.67C13.3801 74.2379 15.3779 75.3056 17.5527 75.7382C19.7276 76.1707 21.9819 75.9486 24.0306 75.0999C26.0792 74.2513 27.8302 72.8142 29.0622 70.9704C30.2941 69.1267 30.9517 66.959 30.9517 64.7415C30.9517 62.524 30.2941 60.3564 29.0622 58.5126C27.8302 56.6688 26.0792 55.2317 24.0306 54.3831C21.9819 53.5344 19.7276 53.3123 17.5527 53.7449C15.3779 54.1774 13.3801 55.2451 11.812 56.813C10.7706 57.8541 9.94454 59.0901 9.38094 60.4505C8.81733 61.8109 8.52724 63.269 8.52724 64.7415C8.52724 66.214 8.81733 67.6721 9.38094 69.0325C9.94454 70.3929 10.7706 71.6289 11.812 72.67Z" fill="white" stroke="#45413C" stroke-linecap="round" stroke-linejoin="round"/>
<path d="M19.74 72.503C24.0268 72.503 27.502 69.0278 27.502 64.741C27.502 60.4542 24.0268 56.979 19.74 56.979C15.4532 56.979 11.978 60.4542 11.978 64.741C11.978 69.0278 15.4532 72.503 19.74 72.503Z" fill="#BF8256"/>
<path d="M19.74 60.429C17.983 60.4305 16.2786 61.0286 14.906 62.1254C13.5335 63.2222 12.5741 64.7527 12.185 66.466C11.9157 65.3262 11.9078 64.1402 12.1619 62.9968C12.416 61.8535 12.9255 60.7825 13.6523 59.864C14.379 58.9455 15.3042 58.2034 16.3585 57.6932C17.4127 57.183 18.5688 56.918 19.74 56.918C20.9112 56.918 22.0673 57.183 23.1215 57.6932C24.1758 58.2034 25.101 58.9455 25.8277 59.864C26.5545 60.7825 27.064 61.8535 27.3181 62.9968C27.5722 64.1402 27.5643 65.3262 27.295 66.466C26.9059 64.7527 25.9465 63.2222 24.5739 62.1254C23.2014 61.0286 21.497 60.4305 19.74 60.429Z" fill="#915E3A"/>
<path d="M19.74 72.503C24.0268 72.503 27.502 69.0278 27.502 64.741C27.502 60.4542 24.0268 56.979 19.74 56.979C15.4532 56.979 11.978 60.4542 11.978 64.741C11.978 69.0278 15.4532 72.503 19.74 72.503Z" stroke="#45413C" stroke-linecap="round" stroke-linejoin="round"/>
<path d="M113.815 57.0238L111.483 63.5178C111.215 64.264 111.097 65.0556 111.134 65.8476C111.172 66.6395 111.366 67.4162 111.704 68.1334C112.042 68.8505 112.518 69.494 113.105 70.0272C113.692 70.5604 114.378 70.9728 115.124 71.2408C115.87 71.5088 116.662 71.6273 117.454 71.5893C118.246 71.5514 119.022 71.3579 119.74 71.0198C120.457 70.6817 121.1 70.2056 121.633 69.6188C122.167 69.032 122.579 68.346 122.847 67.5998L125.179 61.1058C125.447 60.3596 125.565 59.568 125.528 58.776C125.49 57.9841 125.296 57.2074 124.958 56.4902C124.62 55.7731 124.144 55.1295 123.557 54.5964C122.97 54.0632 122.284 53.6508 121.538 53.3828C120.792 53.1148 120 52.9963 119.208 53.0343C118.416 53.0722 117.64 53.2657 116.922 53.6038C116.205 53.9419 115.562 54.4179 115.029 55.0047C114.495 55.5915 114.083 56.2776 113.815 57.0238Z" fill="#E0E0E0"/>
<path d="M121.539 53.3828C120.032 52.8416 118.372 52.9212 116.923 53.604C115.475 54.2867 114.357 55.5169 113.815 57.0238L112.358 61.0828C112.626 60.3366 113.038 59.6506 113.572 59.0638C114.105 58.4769 114.748 58.0009 115.465 57.6628C116.183 57.3247 116.959 57.1312 117.751 57.0933C118.543 57.0553 119.335 57.1738 120.081 57.4418C120.827 57.7098 121.513 58.1222 122.1 58.6554C122.687 59.1886 123.163 59.8321 123.501 60.5492C123.839 61.2664 124.033 62.0431 124.071 62.835C124.108 63.627 123.99 64.4186 123.722 65.1648L125.179 61.1058C125.447 60.3597 125.566 59.5681 125.528 58.7762C125.49 57.9843 125.297 57.2076 124.959 56.4904C124.621 55.7733 124.145 55.1297 123.558 54.5965C122.971 54.0633 122.285 53.6509 121.539 53.3828Z" fill="#F0F0F0"/>
<path d="M113.815 57.0238L111.483 63.5178C111.215 64.264 111.097 65.0556 111.134 65.8476C111.172 66.6395 111.366 67.4162 111.704 68.1334C112.042 68.8505 112.518 69.494 113.105 70.0272C113.692 70.5604 114.378 70.9728 115.124 71.2408C115.87 71.5088 116.662 71.6273 117.454 71.5893C118.246 71.5514 119.022 71.3579 119.74 71.0198C120.457 70.6817 121.1 70.2056 121.633 69.6188C122.167 69.032 122.579 68.346 122.847 67.5998L125.179 61.1058C125.447 60.3596 125.565 59.568 125.528 58.776C125.49 57.9841 125.296 57.2074 124.958 56.4902C124.62 55.7731 124.144 55.1295 123.557 54.5964C122.97 54.0632 122.284 53.6508 121.538 53.3828C120.792 53.1148 120 52.9963 119.208 53.0343C118.416 53.0722 117.64 53.2657 116.922 53.6038C116.205 53.9419 115.562 54.4179 115.029 55.0047C114.495 55.5915 114.083 56.2776 113.815 57.0238V57.0238Z" stroke="#45413C" stroke-linecap="round" stroke-linejoin="round"/>
<path d="M119.789 57.3908C119.573 57.3907 119.365 57.4717 119.206 57.6176C119.046 57.7636 118.948 57.9639 118.929 58.1791C118.91 58.3943 118.973 58.6087 119.105 58.7799C119.236 58.9512 119.427 59.0668 119.64 59.1039C119.853 59.1411 120.072 59.0971 120.254 58.9807C120.436 58.8642 120.568 58.6838 120.623 58.475C120.678 58.2662 120.653 58.0443 120.553 57.853C120.453 57.6617 120.284 57.515 120.081 57.4418C119.987 57.4081 119.889 57.3908 119.789 57.3908Z" fill="#45413C"/>
<path d="M134.59 79.9082L125.032 100.652C124.801 101.154 125.021 101.748 125.522 101.979L136.866 107.206C137.368 107.437 137.962 107.217 138.193 106.716L147.75 85.9719C147.982 85.4703 147.762 84.8763 147.261 84.6452L135.917 79.4185C135.415 79.1874 134.821 79.4066 134.59 79.9082Z" fill="white" stroke="#45413C" stroke-linecap="round" stroke-linejoin="round"/>
<path d="M133.276 82.7607L126.346 97.8009L139.506 103.865L146.436 88.8245L133.276 82.7607Z" fill="#6EB2F2"/>
<path d="M127.646 94.9801L145.497 88.3912L133.276 82.7601L127.646 94.9801Z" fill="#9ACEFF"/>
<path d="M133.276 82.7607L126.346 97.8009L139.506 103.865L146.436 88.8245L133.276 82.7607Z" stroke="#45413C" stroke-linecap="round" stroke-linejoin="round"/>
<path d="M105.366 104.72L91.7658 101.699V123.026L100.53 124.973C100.658 125.002 100.791 125.005 100.92 124.982C101.049 124.959 101.173 124.911 101.284 124.84C101.395 124.77 101.49 124.678 101.566 124.571C101.641 124.463 101.694 124.341 101.723 124.213L105.876 105.513C105.913 105.34 105.88 105.16 105.785 105.011C105.689 104.863 105.538 104.758 105.366 104.72Z" fill="#E8F4FA" stroke="#45413C" stroke-linecap="round" stroke-linejoin="round"/>
<path d="M102.239 107.721C102.256 107.643 102.258 107.562 102.244 107.484C102.23 107.405 102.201 107.33 102.158 107.262C102.115 107.195 102.059 107.136 101.993 107.091C101.928 107.045 101.854 107.012 101.776 106.995L91.7628 104.771V117.493L99.0838 119.119C99.1618 119.137 99.2425 119.139 99.3213 119.125C99.4001 119.111 99.4754 119.082 99.5428 119.039C99.6103 118.996 99.6686 118.94 99.7144 118.875C99.7602 118.809 99.7927 118.735 99.8098 118.657L102.239 107.721Z" fill="#6EB2F2" stroke="#45413C" stroke-linecap="round" stroke-linejoin="round"/>
<path d="M90.5928 90.4582H52.5538C51.9076 90.4582 51.3838 90.9821 51.3838 91.6282V131.338C51.3838 131.984 51.9076 132.508 52.5538 132.508H90.5928C91.239 132.508 91.7628 131.984 91.7628 131.338V91.6282C91.7628 90.9821 91.239 90.4582 90.5928 90.4582Z" fill="white" stroke="#45413C" stroke-linecap="round" stroke-linejoin="round"/>
<path d="M85.7468 95.3032H57.3988C56.7526 95.3032 56.2288 95.8271 56.2288 96.4732V121.591C56.2288 122.237 56.7526 122.761 57.3988 122.761H85.7468C86.393 122.761 86.9168 122.237 86.9168 121.591V96.4732C86.9168 95.8271 86.393 95.3032 85.7468 95.3032Z" fill="#6EB2F2"/>
<path d="M57.5748 95.3032C57.2178 95.3032 56.8755 95.445 56.623 95.6975C56.3706 95.9499 56.2288 96.2923 56.2288 96.6492V114.685L77.2288 95.3032H57.5748Z" fill="#9ACEFF"/>
<path d="M85.7468 95.3032H57.3988C56.7526 95.3032 56.2288 95.8271 56.2288 96.4732V121.591C56.2288 122.237 56.7526 122.761 57.3988 122.761H85.7468C86.393 122.761 86.9168 122.237 86.9168 121.591V96.4732C86.9168 95.8271 86.393 95.3032 85.7468 95.3032Z" stroke="#45413C" stroke-linecap="round" stroke-linejoin="round"/>
<path d="M73.0488 105.35C73.3856 105.35 73.7191 105.416 74.0303 105.545C74.3415 105.674 74.6243 105.863 74.8625 106.101C75.1007 106.339 75.2896 106.622 75.4185 106.933C75.5475 107.244 75.6138 107.577 75.6138 107.914" stroke="#45413C" stroke-linecap="round" stroke-linejoin="round"/>
<path d="M78.1808 105.35C77.844 105.35 77.5105 105.416 77.1993 105.545C76.8881 105.674 76.6053 105.863 76.3671 106.101C76.1289 106.339 75.94 106.622 75.8111 106.933C75.6822 107.244 75.6158 107.577 75.6158 107.914" stroke="#45413C" stroke-linecap="round" stroke-linejoin="round"/>
<path d="M66.0018 111.638C66.3392 111.638 66.6734 111.705 66.9851 111.834C67.2968 111.963 67.5799 112.152 67.8183 112.391C68.0567 112.63 68.2456 112.914 68.3742 113.226C68.5028 113.538 68.5686 113.872 68.5678 114.209" stroke="#45413C" stroke-linecap="round" stroke-linejoin="round"/>
<path d="M71.1338 111.638C70.7964 111.638 70.4622 111.705 70.1505 111.834C69.8388 111.963 69.5557 112.152 69.3173 112.391C69.0789 112.63 68.89 112.914 68.7614 113.226C68.6328 113.538 68.567 113.872 68.5678 114.209" stroke="#45413C" stroke-linecap="round" stroke-linejoin="round"/>
<path d="M57.3998 122.761H85.7468C85.9005 122.761 86.0528 122.731 86.1949 122.672C86.3369 122.614 86.466 122.528 86.5748 122.419C86.6835 122.31 86.7698 122.181 86.8287 122.039C86.8875 121.897 86.9178 121.745 86.9178 121.591V115.973C86.4578 115.514 86.0018 115.062 85.5638 114.625C84.4911 113.56 83.0484 112.95 81.5366 112.922C80.0249 112.895 78.5611 113.453 77.4508 114.479L72.8858 118.697C72.491 119.062 72.0028 119.311 71.4754 119.415C70.948 119.52 70.402 119.476 69.8978 119.289L65.3148 117.589C64.1599 117.161 62.8996 117.108 61.7126 117.437C60.5256 117.765 59.4722 118.459 58.7018 119.42L56.4338 122.25C56.5411 122.408 56.6852 122.536 56.8535 122.625C57.0219 122.714 57.2094 122.761 57.3998 122.761Z" fill="#39C591" stroke="#45413C" stroke-linecap="round" stroke-linejoin="round"/>
<path d="M65 101C65 101.594 64.8241 102.174 64.4944 102.667C64.1648 103.16 63.6962 103.545 63.1481 103.772C62.5999 103.999 61.9967 104.058 61.4148 103.943C60.8328 103.827 60.2983 103.541 59.8787 103.122C59.4591 102.702 59.1734 102.167 59.0577 101.585C58.9419 101.004 59.0013 100.4 59.2284 99.8522C59.4554 99.304 59.84 98.8355 60.3333 98.5058C60.8267 98.1762 61.4067 98.0002 62 98.0002C62.7957 98.0002 63.5587 98.3163 64.1213 98.8789C64.684 99.4415 65 100.205 65 101Z" fill="#EFC93D" stroke="#45413C" stroke-linecap="round" stroke-linejoin="round"/>
<path d="M43.8588 148.433C44.2466 148.518 44.6526 148.455 44.9954 148.254C45.3382 148.053 45.5927 147.731 45.7078 147.351L47.8758 140.208C48.1018 139.406 48.1613 138.567 48.0506 137.741C47.9398 136.915 47.6612 136.121 47.2318 135.408C46.8731 134.767 46.3701 134.218 45.7626 133.805C45.1551 133.392 44.4598 133.126 43.7318 133.028C42.7765 132.911 41.813 133.167 41.0414 133.742C40.2699 134.317 39.7496 135.168 39.5888 136.117L39.3838 137.165C39.3561 137.305 39.2988 137.439 39.2157 137.556C39.1325 137.673 39.0255 137.771 38.9017 137.844C38.7779 137.916 38.64 137.962 38.4973 137.977C38.3546 137.992 38.2102 137.977 38.0738 137.933L37.0598 137.599C36.1538 137.275 35.1579 137.312 34.2788 137.703C33.3997 138.094 32.705 138.809 32.3388 139.699C32.0657 140.383 31.956 141.121 32.0183 141.855C32.0806 142.588 32.3133 143.298 32.6978 143.926C33.1104 144.649 33.6666 145.279 34.3321 145.779C34.9977 146.279 35.7585 146.638 36.5678 146.833L43.8588 148.433Z" fill="#EC4D63"/>
<path d="M43.8588 148.433C44.2466 148.518 44.6526 148.455 44.9954 148.254C45.3382 148.053 45.5927 147.731 45.7078 147.351L47.8758 140.208C48.1018 139.406 48.1613 138.567 48.0506 137.741C47.9398 136.915 47.6612 136.121 47.2318 135.408V135.408C46.8731 134.767 46.3701 134.218 45.7626 133.805C45.1551 133.392 44.4598 133.126 43.7318 133.028V133.028C42.7765 132.911 41.813 133.167 41.0414 133.742C40.2699 134.317 39.7496 135.168 39.5888 136.117L39.3768 137.186C39.3496 137.325 39.2931 137.457 39.211 137.572C39.1289 137.688 39.0232 137.785 38.9008 137.857C38.7784 137.928 38.6422 137.973 38.5012 137.988C38.3601 138.003 38.2175 137.988 38.0828 137.944L37.0548 137.606C36.1488 137.282 35.1529 137.319 34.2738 137.71C33.3947 138.101 32.7 138.816 32.3338 139.706V139.706C32.0626 140.389 31.9543 141.126 32.0175 141.859C32.0807 142.591 32.3136 143.299 32.6978 143.926C33.1104 144.649 33.6666 145.279 34.3321 145.779C34.9977 146.279 35.7585 146.638 36.5678 146.833L43.8588 148.433Z" stroke="#B32034" stroke-linecap="round" stroke-linejoin="round"/>
<path d="M44.6139 100.6C44.8295 100.648 45.055 100.612 45.2457 100.501C45.4365 100.39 45.5786 100.211 45.6439 100L46.8529 96.0174C46.9788 95.5707 47.0119 95.1028 46.9502 94.6428C46.8884 94.1827 46.7331 93.7402 46.4939 93.3424C46.2933 92.9849 46.0124 92.6789 45.6733 92.4486C45.3342 92.2183 44.9461 92.07 44.5399 92.0154C44.0081 91.9504 43.4718 92.0925 43.0419 92.4121C42.6121 92.7318 42.3217 93.2045 42.2309 93.7324V93.7434L41.9949 94.9504L40.8219 94.5644C40.3162 94.3839 39.7605 94.4051 39.2701 94.6238C38.7797 94.8424 38.3925 95.2416 38.1889 95.7384C38.0375 96.1191 37.9768 96.5298 38.0115 96.938C38.0462 97.3462 38.1754 97.7408 38.3889 98.0904C38.6189 98.4936 38.929 98.8455 39.3001 99.1242C39.6713 99.403 40.0956 99.6029 40.5469 99.7114L44.6139 100.6Z" fill="#EC4D63"/>
<path d="M44.6139 100.6C44.8295 100.648 45.055 100.612 45.2457 100.501C45.4365 100.39 45.5786 100.211 45.6439 100L46.8529 96.0174C46.9788 95.5707 47.0119 95.1028 46.9502 94.6428C46.8884 94.1827 46.7331 93.7402 46.4939 93.3424V93.3424C46.2933 92.9849 46.0124 92.6789 45.6733 92.4486C45.3342 92.2183 44.9461 92.07 44.5399 92.0154V92.0154C44.0071 91.9506 43.4699 92.0934 43.0397 92.4142C42.6096 92.7351 42.3195 93.2093 42.2299 93.7384L41.9929 94.9504L40.8199 94.5644C40.3142 94.3839 39.7585 94.4051 39.2681 94.6238C38.7777 94.8424 38.3905 95.2416 38.1869 95.7384V95.7384C38.0355 96.1191 37.9748 96.5298 38.0095 96.938C38.0442 97.3462 38.1734 97.7408 38.3869 98.0904V98.0904C38.6169 98.4936 38.927 98.8455 39.2981 99.1242C39.6693 99.403 40.0936 99.6029 40.5449 99.7114L44.6139 100.6Z" stroke="#B32034" stroke-linecap="round" stroke-linejoin="round"/>
<path d="M99.6729 94.3742C99.7329 94.5995 99.8757 94.7938 100.073 94.9184C100.27 95.0429 100.507 95.0886 100.736 95.0462L105.049 94.2462C105.528 94.1478 105.982 93.9523 106.383 93.6718C106.783 93.3913 107.122 93.0317 107.379 92.6152C107.617 92.255 107.768 91.8443 107.82 91.4156C107.872 90.9869 107.824 90.552 107.679 90.1452C107.482 89.6158 107.089 89.1825 106.581 88.9351C106.073 88.6877 105.489 88.6452 104.951 88.8162L103.704 89.1802L103.497 87.8952C103.419 87.3353 103.128 86.8269 102.684 86.4758C102.241 86.1246 101.68 85.9575 101.117 86.0092C100.688 86.0527 100.275 86.1953 99.9104 86.4258C99.5459 86.6562 99.24 86.9683 99.0169 87.3372C98.7514 87.7471 98.5726 88.2069 98.4915 88.6885C98.4103 89.17 98.4285 89.663 98.5449 90.1372L99.6729 94.3742Z" fill="#EC4D63"/>
<path d="M99.6729 94.3742C99.7329 94.5995 99.8757 94.7938 100.073 94.9184C100.27 95.0429 100.507 95.0886 100.736 95.0462L105.049 94.2462C105.528 94.1478 105.982 93.9523 106.383 93.6718C106.783 93.3913 107.122 93.0317 107.379 92.6152V92.6152C107.617 92.255 107.768 91.8443 107.82 91.4156C107.872 90.9869 107.824 90.552 107.679 90.1452C107.482 89.6154 107.088 89.1817 106.58 88.9343C106.072 88.6868 105.488 88.6446 104.949 88.8162L103.7 89.1812L103.493 87.8962C103.415 87.3368 103.125 86.8289 102.682 86.4776C102.24 86.1263 101.679 85.9586 101.117 86.0092V86.0092C100.688 86.0527 100.275 86.1953 99.9104 86.4258C99.5459 86.6562 99.24 86.9683 99.0169 87.3372V87.3372C98.7514 87.7471 98.5726 88.2069 98.4915 88.6885C98.4103 89.17 98.4285 89.663 98.5449 90.1372L99.6729 94.3742Z" stroke="#B32034" stroke-linecap="round" stroke-linejoin="round"/>
<path d="M51.3838 102.572L36.4168 106.523C36.3321 106.546 36.2526 106.584 36.1829 106.637C36.1132 106.69 36.0546 106.757 36.0105 106.832C35.9664 106.908 35.9376 106.992 35.9258 107.078C35.9141 107.165 35.9195 107.254 35.9418 107.338L40.9148 126.179C40.9371 126.264 40.9759 126.343 41.029 126.413C41.082 126.483 41.1482 126.541 41.2239 126.586C41.2996 126.63 41.3832 126.658 41.47 126.67C41.5568 126.682 41.6451 126.677 41.7298 126.654L51.3838 124.109V102.572Z" fill="#E8F4FA" stroke="#45413C" stroke-linecap="round" stroke-linejoin="round"/>
<path d="M51.3838 105.674L40.0938 108.654C40.0165 108.675 39.9439 108.71 39.8802 108.758C39.8165 108.807 39.763 108.867 39.7227 108.936C39.6824 109.005 39.6561 109.082 39.6453 109.161C39.6345 109.24 39.6394 109.321 39.6598 109.398L42.5188 120.228C42.5392 120.306 42.5745 120.378 42.6229 120.442C42.6714 120.506 42.7318 120.559 42.8009 120.599C42.87 120.64 42.9464 120.666 43.0256 120.677C43.1049 120.688 43.1855 120.683 43.2628 120.662L51.3838 118.519V105.674Z" fill="#6EB2F2" stroke="#45413C" stroke-linecap="round" stroke-linejoin="round"/>
</g>
<defs>
<clipPath id="clip0">
<rect width="150.537" height="147.554" fill="white" transform="translate(0.123901 0.916016)"/>
</clipPath>
</defs>
</svg>
